<svg xmlns="http://www.w3.org/2000/svg" viewBox="0 0 799 100" preserveAspectRatio="none">
  <style>rect{fill:white}</style>
  <rect x="0" y="43" width="3" height="15" rx="1"/>
  <rect x="4" y="41" width="3" height="18" rx="1"/>
  <rect x="8" y="43" width="3" height="15" rx="1"/>
  <rect x="12" y="43" width="3" height="15" rx="1"/>
  <rect x="16" y="43" width="3" height="14" rx="1"/>
  <rect x="20" y="25" width="3" height="50" rx="1"/>
  <rect x="24" y="27" width="3" height="46" rx="1"/>
  <rect x="28" y="26" width="3" height="48" rx="1"/>
  <rect x="32" y="27" width="3" height="47" rx="1"/>
  <rect x="36" y="8" width="3" height="85" rx="1"/>
  <rect x="40" y="6" width="3" height="89" rx="1"/>
  <rect x="44" y="7" width="3" height="86" rx="1"/>
  <rect x="48" y="5" width="3" height="90" rx="1"/>
  <rect x="52" y="5" width="3" height="91" rx="1"/>
  <rect x="56" y="7" width="3" height="86" rx="1"/>
  <rect x="60" y="8" width="3" height="84" rx="1"/>
  <rect x="64" y="4" width="3" height="93" rx="1"/>
  <rect x="68" y="7" width="3" height="86" rx="1"/>
  <rect x="72" y="6" width="3" height="88" rx="1"/>
  <rect x="76" y="3" width="3" height="94" rx="1"/>
  <rect x="80" y="4" width="3" height="92" rx="1"/>
  <rect x="84" y="5" width="3" height="90" rx="1"/>
  <rect x="88" y="4" width="3" height="93" rx="1"/>
  <rect x="92" y="8" width="3" height="84" rx="1"/>
  <rect x="96" y="5" width="3" height="90" rx="1"/>
  <rect x="100" y="5" width="3" height="90" rx="1"/>
  <rect x="104" y="5" width="3" height="91" rx="1"/>
  <rect x="108" y="5" width="3" height="91" rx="1"/>
  <rect x="112" y="4" width="3" height="93" rx="1"/>
  <rect x="116" y="6" width="3" height="89" rx="1"/>
  <rect x="120" y="3" width="3" height="95" rx="1"/>
  <rect x="124" y="5" width="3" height="91" rx="1"/>
  <rect x="128" y="4" width="3" height="92" rx="1"/>
  <rect x="132" y="6" width="3" height="89" rx="1"/>
  <rect x="136" y="4" width="3" height="92" rx="1"/>
  <rect x="140" y="11" width="3" height="79" rx="1"/>
  <rect x="144" y="6" width="3" height="88" rx="1"/>
  <rect x="148" y="12" width="3" height="77" rx="1"/>
  <rect x="152" y="11" width="3" height="79" rx="1"/>
  <rect x="156" y="7" width="3" height="86" rx="1"/>
  <rect x="160" y="4" width="3" height="93" rx="1"/>
  <rect x="164" y="4" width="3" height="93" rx="1"/>
  <rect x="168" y="8" width="3" height="85" rx="1"/>
  <rect x="172" y="10" width="3" height="81" rx="1"/>
  <rect x="176" y="5" width="3" height="91" rx="1"/>
  <rect x="180" y="6" width="3" height="88" rx="1"/>
  <rect x="184" y="8" width="3" height="84" rx="1"/>
  <rect x="188" y="6" width="3" height="88" rx="1"/>
  <rect x="192" y="6" width="3" height="89" rx="1"/>
  <rect x="196" y="5" width="3" height="90" rx="1"/>
  <rect x="200" y="6" width="3" height="89" rx="1"/>
  <rect x="204" y="7" width="3" height="87" rx="1"/>
  <rect x="208" y="5" width="3" height="90" rx="1"/>
  <rect x="212" y="4" width="3" height="93" rx="1"/>
  <rect x="216" y="3" width="3" height="95" rx="1"/>
  <rect x="220" y="4" width="3" height="93" rx="1"/>
  <rect x="224" y="9" width="3" height="82" rx="1"/>
  <rect x="228" y="7" width="3" height="87" rx="1"/>
  <rect x="232" y="10" width="3" height="81" rx="1"/>
  <rect x="236" y="7" width="3" height="86" rx="1"/>
  <rect x="240" y="6" width="3" height="89" rx="1"/>
  <rect x="244" y="8" width="3" height="84" rx="1"/>
  <rect x="248" y="6" width="3" height="88" rx="1"/>
  <rect x="252" y="5" width="3" height="91" rx="1"/>
  <rect x="256" y="7" width="3" height="87" rx="1"/>
  <rect x="260" y="3" width="3" height="95" rx="1"/>
  <rect x="264" y="5" width="3" height="91" rx="1"/>
  <rect x="268" y="3" width="3" height="94" rx="1"/>
  <rect x="272" y="8" width="3" height="85" rx="1"/>
  <rect x="276" y="9" width="3" height="82" rx="1"/>
  <rect x="280" y="8" width="3" height="84" rx="1"/>
  <rect x="284" y="10" width="3" height="80" rx="1"/>
  <rect x="288" y="6" width="3" height="88" rx="1"/>
  <rect x="292" y="13" width="3" height="74" rx="1"/>
  <rect x="296" y="6" width="3" height="88" rx="1"/>
  <rect x="300" y="7" width="3" height="86" rx="1"/>
  <rect x="304" y="7" width="3" height="87" rx="1"/>
  <rect x="308" y="10" width="3" height="80" rx="1"/>
  <rect x="312" y="7" width="3" height="86" rx="1"/>
  <rect x="316" y="10" width="3" height="81" rx="1"/>
  <rect x="320" y="8" width="3" height="84" rx="1"/>
  <rect x="324" y="11" width="3" height="79" rx="1"/>
  <rect x="328" y="10" width="3" height="81" rx="1"/>
  <rect x="332" y="8" width="3" height="84" rx="1"/>
  <rect x="336" y="13" width="3" height="74" rx="1"/>
  <rect x="340" y="11" width="3" height="79" rx="1"/>
  <rect x="344" y="5" width="3" height="90" rx="1"/>
  <rect x="348" y="9" width="3" height="83" rx="1"/>
  <rect x="352" y="10" width="3" height="81" rx="1"/>
  <rect x="356" y="8" width="3" height="84" rx="1"/>
  <rect x="360" y="8" width="3" height="85" rx="1"/>
  <rect x="364" y="8" width="3" height="85" rx="1"/>
  <rect x="368" y="5" width="3" height="90" rx="1"/>
  <rect x="372" y="8" width="3" height="84" rx="1"/>
  <rect x="376" y="16" width="3" height="68" rx="1"/>
  <rect x="380" y="10" width="3" height="80" rx="1"/>
  <rect x="384" y="8" width="3" height="85" rx="1"/>
  <rect x="388" y="6" width="3" height="88" rx="1"/>
  <rect x="392" y="4" width="3" height="93" rx="1"/>
  <rect x="396" y="7" width="3" height="86" rx="1"/>
  <rect x="400" y="8" width="3" height="85" rx="1"/>
  <rect x="404" y="9" width="3" height="82" rx="1"/>
  <rect x="408" y="4" width="3" height="92" rx="1"/>
  <rect x="412" y="6" width="3" height="89" rx="1"/>
  <rect x="416" y="8" width="3" height="84" rx="1"/>
  <rect x="420" y="0" width="3" height="100" rx="1"/>
  <rect x="424" y="5" width="3" height="90" rx="1"/>
  <rect x="428" y="6" width="3" height="88" rx="1"/>
  <rect x="432" y="5" width="3" height="90" rx="1"/>
  <rect x="436" y="8" width="3" height="85" rx="1"/>
  <rect x="440" y="7" width="3" height="87" rx="1"/>
  <rect x="444" y="5" width="3" height="91" rx="1"/>
  <rect x="448" y="3" width="3" height="94" rx="1"/>
  <rect x="452" y="7" width="3" height="87" rx="1"/>
  <rect x="456" y="19" width="3" height="62" rx="1"/>
  <rect x="460" y="8" width="3" height="84" rx="1"/>
  <rect x="464" y="10" width="3" height="80" rx="1"/>
  <rect x="468" y="8" width="3" height="85" rx="1"/>
  <rect x="472" y="6" width="3" height="88" rx="1"/>
  <rect x="476" y="8" width="3" height="85" rx="1"/>
  <rect x="480" y="9" width="3" height="83" rx="1"/>
  <rect x="484" y="7" width="3" height="87" rx="1"/>
  <rect x="488" y="6" width="3" height="89" rx="1"/>
  <rect x="492" y="9" width="3" height="82" rx="1"/>
  <rect x="496" y="6" width="3" height="88" rx="1"/>
  <rect x="500" y="4" width="3" height="93" rx="1"/>
  <rect x="504" y="8" width="3" height="85" rx="1"/>
  <rect x="508" y="7" width="3" height="86" rx="1"/>
  <rect x="512" y="10" width="3" height="81" rx="1"/>
  <rect x="516" y="6" width="3" height="88" rx="1"/>
  <rect x="520" y="11" width="3" height="78" rx="1"/>
  <rect x="524" y="8" width="3" height="85" rx="1"/>
  <rect x="528" y="10" width="3" height="81" rx="1"/>
  <rect x="532" y="5" width="3" height="90" rx="1"/>
  <rect x="536" y="10" width="3" height="81" rx="1"/>
  <rect x="540" y="5" width="3" height="91" rx="1"/>
  <rect x="544" y="9" width="3" height="83" rx="1"/>
  <rect x="548" y="4" width="3" height="92" rx="1"/>
  <rect x="552" y="10" width="3" height="81" rx="1"/>
  <rect x="556" y="7" width="3" height="86" rx="1"/>
  <rect x="560" y="17" width="3" height="67" rx="1"/>
  <rect x="564" y="8" width="3" height="85" rx="1"/>
  <rect x="568" y="8" width="3" height="85" rx="1"/>
  <rect x="572" y="10" width="3" height="81" rx="1"/>
  <rect x="576" y="5" width="3" height="90" rx="1"/>
  <rect x="580" y="12" width="3" height="77" rx="1"/>
  <rect x="584" y="9" width="3" height="82" rx="1"/>
  <rect x="588" y="5" width="3" height="90" rx="1"/>
  <rect x="592" y="10" width="3" height="81" rx="1"/>
  <rect x="596" y="31" width="3" height="39" rx="1"/>
  <rect x="600" y="39" width="3" height="22" rx="1"/>
  <rect x="604" y="40" width="3" height="20" rx="1"/>
  <rect x="608" y="16" width="3" height="68" rx="1"/>
  <rect x="612" y="6" width="3" height="89" rx="1"/>
  <rect x="616" y="10" width="3" height="80" rx="1"/>
  <rect x="620" y="9" width="3" height="83" rx="1"/>
  <rect x="624" y="2" width="3" height="96" rx="1"/>
  <rect x="628" y="7" width="3" height="86" rx="1"/>
  <rect x="632" y="6" width="3" height="89" rx="1"/>
  <rect x="636" y="10" width="3" height="81" rx="1"/>
  <rect x="640" y="6" width="3" height="89" rx="1"/>
  <rect x="644" y="5" width="3" height="91" rx="1"/>
  <rect x="648" y="11" width="3" height="78" rx="1"/>
  <rect x="652" y="10" width="3" height="81" rx="1"/>
  <rect x="656" y="11" width="3" height="79" rx="1"/>
  <rect x="660" y="7" width="3" height="87" rx="1"/>
  <rect x="664" y="11" width="3" height="79" rx="1"/>
  <rect x="668" y="14" width="3" height="72" rx="1"/>
  <rect x="672" y="8" width="3" height="85" rx="1"/>
  <rect x="676" y="7" width="3" height="86" rx="1"/>
  <rect x="680" y="6" width="3" height="89" rx="1"/>
  <rect x="684" y="5" width="3" height="91" rx="1"/>
  <rect x="688" y="9" width="3" height="83" rx="1"/>
  <rect x="692" y="7" width="3" height="86" rx="1"/>
  <rect x="696" y="6" width="3" height="89" rx="1"/>
  <rect x="700" y="11" width="3" height="78" rx="1"/>
  <rect x="704" y="7" width="3" height="87" rx="1"/>
  <rect x="708" y="7" width="3" height="87" rx="1"/>
  <rect x="712" y="8" width="3" height="84" rx="1"/>
  <rect x="716" y="7" width="3" height="86" rx="1"/>
  <rect x="720" y="4" width="3" height="92" rx="1"/>
  <rect x="724" y="9" width="3" height="83" rx="1"/>
  <rect x="728" y="4" width="3" height="92" rx="1"/>
  <rect x="732" y="9" width="3" height="83" rx="1"/>
  <rect x="736" y="14" width="3" height="72" rx="1"/>
  <rect x="740" y="7" width="3" height="87" rx="1"/>
  <rect x="744" y="12" width="3" height="76" rx="1"/>
  <rect x="748" y="6" width="3" height="89" rx="1"/>
  <rect x="752" y="6" width="3" height="88" rx="1"/>
  <rect x="756" y="9" width="3" height="82" rx="1"/>
  <rect x="760" y="8" width="3" height="84" rx="1"/>
  <rect x="764" y="5" width="3" height="91" rx="1"/>
  <rect x="768" y="6" width="3" height="88" rx="1"/>
  <rect x="772" y="44" width="3" height="12" rx="1"/>
  <rect x="776" y="49" width="3" height="2" rx="1"/>
  <rect x="780" y="50" width="3" height="1" rx="1"/>
  <rect x="784" y="50" width="3" height="1" rx="1"/>
  <rect x="788" y="50" width="3" height="1" rx="1"/>
  <rect x="792" y="50" width="3" height="1" rx="1"/>
  <rect x="796" y="50" width="3" height="1" rx="1"/>
</svg>