<svg xmlns="http://www.w3.org/2000/svg" viewBox="0 0 799 100" preserveAspectRatio="none">
  <style>rect{fill:white}</style>
  <rect x="0" y="21" width="3" height="58" rx="1"/>
  <rect x="4" y="22" width="3" height="56" rx="1"/>
  <rect x="8" y="2" width="3" height="96" rx="1"/>
  <rect x="12" y="4" width="3" height="93" rx="1"/>
  <rect x="16" y="6" width="3" height="88" rx="1"/>
  <rect x="20" y="5" width="3" height="91" rx="1"/>
  <rect x="24" y="3" width="3" height="95" rx="1"/>
  <rect x="28" y="5" width="3" height="90" rx="1"/>
  <rect x="32" y="5" width="3" height="91" rx="1"/>
  <rect x="36" y="11" width="3" height="79" rx="1"/>
  <rect x="40" y="4" width="3" height="93" rx="1"/>
  <rect x="44" y="4" width="3" height="92" rx="1"/>
  <rect x="48" y="6" width="3" height="89" rx="1"/>
  <rect x="52" y="6" width="3" height="88" rx="1"/>
  <rect x="56" y="7" width="3" height="87" rx="1"/>
  <rect x="60" y="4" width="3" height="93" rx="1"/>
  <rect x="64" y="6" width="3" height="89" rx="1"/>
  <rect x="68" y="7" width="3" height="86" rx="1"/>
  <rect x="72" y="4" width="3" height="92" rx="1"/>
  <rect x="76" y="6" width="3" height="89" rx="1"/>
  <rect x="80" y="1" width="3" height="98" rx="1"/>
  <rect x="84" y="6" width="3" height="88" rx="1"/>
  <rect x="88" y="3" width="3" height="95" rx="1"/>
  <rect x="92" y="5" width="3" height="91" rx="1"/>
  <rect x="96" y="1" width="3" height="99" rx="1"/>
  <rect x="100" y="4" width="3" height="92" rx="1"/>
  <rect x="104" y="4" width="3" height="93" rx="1"/>
  <rect x="108" y="8" width="3" height="84" rx="1"/>
  <rect x="112" y="4" width="3" height="93" rx="1"/>
  <rect x="116" y="4" width="3" height="92" rx="1"/>
  <rect x="120" y="1" width="3" height="99" rx="1"/>
  <rect x="124" y="7" width="3" height="86" rx="1"/>
  <rect x="128" y="6" width="3" height="88" rx="1"/>
  <rect x="132" y="3" width="3" height="95" rx="1"/>
  <rect x="136" y="5" width="3" height="90" rx="1"/>
  <rect x="140" y="8" width="3" height="85" rx="1"/>
  <rect x="144" y="12" width="3" height="77" rx="1"/>
  <rect x="148" y="7" width="3" height="87" rx="1"/>
  <rect x="152" y="9" width="3" height="82" rx="1"/>
  <rect x="156" y="4" width="3" height="92" rx="1"/>
  <rect x="160" y="3" width="3" height="94" rx="1"/>
  <rect x="164" y="3" width="3" height="95" rx="1"/>
  <rect x="168" y="43" width="3" height="15" rx="1"/>
  <rect x="172" y="22" width="3" height="56" rx="1"/>
  <rect x="176" y="16" width="3" height="68" rx="1"/>
  <rect x="180" y="16" width="3" height="69" rx="1"/>
  <rect x="184" y="25" width="3" height="50" rx="1"/>
  <rect x="188" y="17" width="3" height="66" rx="1"/>
  <rect x="192" y="12" width="3" height="76" rx="1"/>
  <rect x="196" y="11" width="3" height="79" rx="1"/>
  <rect x="200" y="15" width="3" height="71" rx="1"/>
  <rect x="204" y="27" width="3" height="47" rx="1"/>
  <rect x="208" y="19" width="3" height="62" rx="1"/>
  <rect x="212" y="12" width="3" height="77" rx="1"/>
  <rect x="216" y="22" width="3" height="57" rx="1"/>
  <rect x="220" y="24" width="3" height="52" rx="1"/>
  <rect x="224" y="5" width="3" height="90" rx="1"/>
  <rect x="228" y="8" width="3" height="84" rx="1"/>
  <rect x="232" y="6" width="3" height="89" rx="1"/>
  <rect x="236" y="4" width="3" height="93" rx="1"/>
  <rect x="240" y="5" width="3" height="91" rx="1"/>
  <rect x="244" y="5" width="3" height="90" rx="1"/>
  <rect x="248" y="5" width="3" height="90" rx="1"/>
  <rect x="252" y="7" width="3" height="86" rx="1"/>
  <rect x="256" y="6" width="3" height="88" rx="1"/>
  <rect x="260" y="3" width="3" height="94" rx="1"/>
  <rect x="264" y="6" width="3" height="88" rx="1"/>
  <rect x="268" y="5" width="3" height="90" rx="1"/>
  <rect x="272" y="5" width="3" height="90" rx="1"/>
  <rect x="276" y="5" width="3" height="90" rx="1"/>
  <rect x="280" y="5" width="3" height="91" rx="1"/>
  <rect x="284" y="5" width="3" height="90" rx="1"/>
  <rect x="288" y="4" width="3" height="92" rx="1"/>
  <rect x="292" y="6" width="3" height="89" rx="1"/>
  <rect x="296" y="3" width="3" height="95" rx="1"/>
  <rect x="300" y="2" width="3" height="96" rx="1"/>
  <rect x="304" y="4" width="3" height="92" rx="1"/>
  <rect x="308" y="8" width="3" height="84" rx="1"/>
  <rect x="312" y="4" width="3" height="93" rx="1"/>
  <rect x="316" y="4" width="3" height="92" rx="1"/>
  <rect x="320" y="3" width="3" height="94" rx="1"/>
  <rect x="324" y="2" width="3" height="96" rx="1"/>
  <rect x="328" y="1" width="3" height="98" rx="1"/>
  <rect x="332" y="3" width="3" height="95" rx="1"/>
  <rect x="336" y="4" width="3" height="92" rx="1"/>
  <rect x="340" y="6" width="3" height="89" rx="1"/>
  <rect x="344" y="7" width="3" height="87" rx="1"/>
  <rect x="348" y="3" width="3" height="95" rx="1"/>
  <rect x="352" y="5" width="3" height="91" rx="1"/>
  <rect x="356" y="7" width="3" height="86" rx="1"/>
  <rect x="360" y="12" width="3" height="76" rx="1"/>
  <rect x="364" y="6" width="3" height="88" rx="1"/>
  <rect x="368" y="9" width="3" height="82" rx="1"/>
  <rect x="372" y="5" width="3" height="91" rx="1"/>
  <rect x="376" y="3" width="3" height="95" rx="1"/>
  <rect x="380" y="6" width="3" height="89" rx="1"/>
  <rect x="384" y="5" width="3" height="90" rx="1"/>
  <rect x="388" y="6" width="3" height="89" rx="1"/>
  <rect x="392" y="5" width="3" height="91" rx="1"/>
  <rect x="396" y="8" width="3" height="85" rx="1"/>
  <rect x="400" y="2" width="3" height="96" rx="1"/>
  <rect x="404" y="6" width="3" height="89" rx="1"/>
  <rect x="408" y="6" width="3" height="89" rx="1"/>
  <rect x="412" y="9" width="3" height="82" rx="1"/>
  <rect x="416" y="8" width="3" height="85" rx="1"/>
  <rect x="420" y="8" width="3" height="85" rx="1"/>
  <rect x="424" y="4" width="3" height="92" rx="1"/>
  <rect x="428" y="2" width="3" height="97" rx="1"/>
  <rect x="432" y="2" width="3" height="96" rx="1"/>
  <rect x="436" y="42" width="3" height="17" rx="1"/>
  <rect x="440" y="19" width="3" height="62" rx="1"/>
  <rect x="444" y="24" width="3" height="52" rx="1"/>
  <rect x="448" y="17" width="3" height="67" rx="1"/>
  <rect x="452" y="21" width="3" height="59" rx="1"/>
  <rect x="456" y="29" width="3" height="43" rx="1"/>
  <rect x="460" y="23" width="3" height="55" rx="1"/>
  <rect x="464" y="30" width="3" height="40" rx="1"/>
  <rect x="468" y="21" width="3" height="58" rx="1"/>
  <rect x="472" y="24" width="3" height="53" rx="1"/>
  <rect x="476" y="20" width="3" height="61" rx="1"/>
  <rect x="480" y="21" width="3" height="58" rx="1"/>
  <rect x="484" y="17" width="3" height="66" rx="1"/>
  <rect x="488" y="18" width="3" height="65" rx="1"/>
  <rect x="492" y="21" width="3" height="58" rx="1"/>
  <rect x="496" y="24" width="3" height="52" rx="1"/>
  <rect x="500" y="14" width="3" height="73" rx="1"/>
  <rect x="504" y="12" width="3" height="77" rx="1"/>
  <rect x="508" y="24" width="3" height="53" rx="1"/>
  <rect x="512" y="23" width="3" height="55" rx="1"/>
  <rect x="516" y="22" width="3" height="57" rx="1"/>
  <rect x="520" y="6" width="3" height="88" rx="1"/>
  <rect x="524" y="3" width="3" height="95" rx="1"/>
  <rect x="528" y="5" width="3" height="91" rx="1"/>
  <rect x="532" y="3" width="3" height="94" rx="1"/>
  <rect x="536" y="7" width="3" height="86" rx="1"/>
  <rect x="540" y="4" width="3" height="92" rx="1"/>
  <rect x="544" y="5" width="3" height="90" rx="1"/>
  <rect x="548" y="4" width="3" height="92" rx="1"/>
  <rect x="552" y="5" width="3" height="91" rx="1"/>
  <rect x="556" y="3" width="3" height="95" rx="1"/>
  <rect x="560" y="6" width="3" height="89" rx="1"/>
  <rect x="564" y="5" width="3" height="91" rx="1"/>
  <rect x="568" y="2" width="3" height="97" rx="1"/>
  <rect x="572" y="0" width="3" height="100" rx="1"/>
  <rect x="576" y="3" width="3" height="94" rx="1"/>
  <rect x="580" y="4" width="3" height="93" rx="1"/>
  <rect x="584" y="4" width="3" height="93" rx="1"/>
  <rect x="588" y="5" width="3" height="91" rx="1"/>
  <rect x="592" y="2" width="3" height="96" rx="1"/>
  <rect x="596" y="5" width="3" height="91" rx="1"/>
  <rect x="600" y="2" width="3" height="97" rx="1"/>
  <rect x="604" y="6" width="3" height="88" rx="1"/>
  <rect x="608" y="3" width="3" height="94" rx="1"/>
  <rect x="612" y="19" width="3" height="63" rx="1"/>
  <rect x="616" y="4" width="3" height="93" rx="1"/>
  <rect x="620" y="5" width="3" height="91" rx="1"/>
  <rect x="624" y="4" width="3" height="93" rx="1"/>
  <rect x="628" y="2" width="3" height="97" rx="1"/>
  <rect x="632" y="7" width="3" height="86" rx="1"/>
  <rect x="636" y="5" width="3" height="91" rx="1"/>
  <rect x="640" y="7" width="3" height="86" rx="1"/>
  <rect x="644" y="2" width="3" height="96" rx="1"/>
  <rect x="648" y="7" width="3" height="86" rx="1"/>
  <rect x="652" y="3" width="3" height="94" rx="1"/>
  <rect x="656" y="3" width="3" height="95" rx="1"/>
  <rect x="660" y="5" width="3" height="91" rx="1"/>
  <rect x="664" y="10" width="3" height="81" rx="1"/>
  <rect x="668" y="3" width="3" height="94" rx="1"/>
  <rect x="672" y="1" width="3" height="99" rx="1"/>
  <rect x="676" y="7" width="3" height="87" rx="1"/>
  <rect x="680" y="1" width="3" height="98" rx="1"/>
  <rect x="684" y="3" width="3" height="94" rx="1"/>
  <rect x="688" y="2" width="3" height="97" rx="1"/>
  <rect x="692" y="5" width="3" height="90" rx="1"/>
  <rect x="696" y="13" width="3" height="74" rx="1"/>
  <rect x="700" y="2" width="3" height="96" rx="1"/>
  <rect x="704" y="9" width="3" height="83" rx="1"/>
  <rect x="708" y="4" width="3" height="92" rx="1"/>
  <rect x="712" y="6" width="3" height="89" rx="1"/>
  <rect x="716" y="5" width="3" height="91" rx="1"/>
  <rect x="720" y="4" width="3" height="92" rx="1"/>
  <rect x="724" y="3" width="3" height="94" rx="1"/>
  <rect x="728" y="3" width="3" height="95" rx="1"/>
  <rect x="732" y="4" width="3" height="93" rx="1"/>
  <rect x="736" y="4" width="3" height="92" rx="1"/>
  <rect x="740" y="9" width="3" height="82" rx="1"/>
  <rect x="744" y="2" width="3" height="96" rx="1"/>
  <rect x="748" y="3" width="3" height="95" rx="1"/>
  <rect x="752" y="15" width="3" height="70" rx="1"/>
  <rect x="756" y="23" width="3" height="55" rx="1"/>
  <rect x="760" y="24" width="3" height="53" rx="1"/>
  <rect x="764" y="21" width="3" height="58" rx="1"/>
  <rect x="768" y="26" width="3" height="48" rx="1"/>
  <rect x="772" y="21" width="3" height="58" rx="1"/>
  <rect x="776" y="24" width="3" height="52" rx="1"/>
  <rect x="780" y="25" width="3" height="50" rx="1"/>
  <rect x="784" y="26" width="3" height="49" rx="1"/>
  <rect x="788" y="26" width="3" height="48" rx="1"/>
  <rect x="792" y="36" width="3" height="28" rx="1"/>
  <rect x="796" y="38" width="3" height="24" rx="1"/>
</svg>